<svg xmlns="http://www.w3.org/2000/svg" xmlns:xlink="http://www.w3.org/1999/xlink" width="796" zoomAndPan="magnify" viewBox="0 0 597 799.499971" height="1066" preserveAspectRatio="xMidYMid meet" version="1.0"><defs><clipPath id="25ba5fe909"><path d="M 0.1875 0 L 596.0625 0 L 596.0625 793 L 0.1875 793 Z M 0.1875 0 " clip-rule="nonzero"/></clipPath></defs><g clip-path="url(#25ba5fe909)"><path fill="#00b14f" d="M 596.242188 298.082031 C 596.242188 433.761719 414.617188 675.308594 334.980469 774.96875 C 315.886719 798.722656 280.492188 798.722656 261.398438 774.96875 C 181.761719 675.308594 0.136719 433.761719 0.136719 298.082031 C 0.136719 133.535156 133.636719 0.03125 298.191406 0.03125 C 462.738281 0.03125 596.242188 133.535156 596.242188 298.082031 Z M 596.242188 298.082031 " fill-opacity="1" fill-rule="nonzero"/></g><path fill="#ffffff" d="M 298.191406 96.679688 C 407.128906 96.679688 495.539062 185.085938 495.539062 294.027344 C 495.539062 402.964844 407.128906 491.378906 298.191406 491.378906 C 189.253906 491.378906 100.839844 402.964844 100.839844 294.027344 C 100.839844 185.085938 189.253906 96.679688 298.191406 96.679688 Z M 298.191406 96.679688 " fill-opacity="1" fill-rule="nonzero"/><path fill="#00b14f" d="M 429.65625 216.945312 L 400.632812 171.011719 C 398.050781 166.90625 393.441406 164.378906 388.53125 164.378906 L 207.828125 164.378906 C 202.917969 164.378906 198.308594 166.90625 195.726562 171.011719 L 166.660156 216.945312 C 151.664062 240.648438 164.933594 273.621094 192.941406 277.414062 C 194.964844 277.671875 197.042969 277.820312 199.066406 277.820312 C 212.289062 277.820312 224.039062 272.046875 232.089844 263.132812 C 240.140625 272.046875 251.890625 277.820312 265.109375 277.820312 C 278.328125 277.820312 290.074219 272.046875 298.132812 263.132812 C 306.183594 272.046875 317.933594 277.820312 331.148438 277.820312 C 344.417969 277.820312 356.117188 272.046875 364.167969 263.132812 C 372.273438 272.046875 383.972656 277.820312 397.191406 277.820312 C 399.265625 277.820312 401.292969 277.671875 403.316406 277.414062 C 431.425781 273.671875 444.746094 240.699219 429.707031 216.945312 Z M 405.394531 293.472656 L 405.34375 293.472656 C 402.660156 293.824219 399.925781 294.027344 397.140625 294.027344 C 390.859375 294.027344 384.832031 293.0625 379.210938 291.34375 L 379.210938 358.851562 L 217.148438 358.851562 L 217.148438 291.292969 C 211.476562 293.0625 205.398438 294.027344 199.117188 294.027344 C 196.332031 294.027344 193.546875 293.824219 190.863281 293.472656 L 190.8125 293.472656 C 188.738281 293.167969 186.710938 292.8125 184.734375 292.304688 L 184.734375 391.265625 C 184.734375 409.144531 199.273438 423.679688 217.148438 423.679688 L 379.210938 423.679688 C 397.089844 423.679688 411.625 409.144531 411.625 391.265625 L 411.625 292.304688 C 409.597656 292.8125 407.574219 293.21875 405.394531 293.472656 Z M 405.394531 293.472656 " fill-opacity="1" fill-rule="nonzero"/><path stroke-linecap="butt" transform="matrix(0.10984, -0.741439, 0.741439, 0.10984, 44.467459, 304.250404)" fill="none" stroke-linejoin="miter" d="M 0.00154198 1.998263 L 186.684982 2.001654 " stroke="#00b14f" stroke-width="4" stroke-opacity="1" stroke-miterlimit="4"/></svg>